PathFileType	4	(X/Y/Z)	/Users/itak/Documents/Research/Walk-IL/dataset/trc/00346_00011.trc
DataRate	CameraRate	NumFrames	NumMarkers	Units	OrigDataRate	OrigDataStartFrame	OrigNumFrames
100.000000	100.000000	4	53	mm	100.000000	642	734
Frame#	Time	RPSI			LPSI			L3			STRN			T10			C7			CLAV			RBAK			LBAK			LSHO			LUPA			LAEL			LAOL			LWTS			LWPS			LFRA			LIFD			LHPS			LHTS			RSHO			RUPA			RAEL			RAOL			RWTS			RWPS			RFRA			RIFD			RHTS			RHPS			RBHD			LFHD			RFHD			LBHD			LHIP			RHIP			RASI			LASI			LKNE			LTHI			LANK			LTIP			LTOE			LMT1			LMT5			LHEE			RKNE			RTHI			RANK			RTIP			RTOE			RMT1			RMT5			RHEE			
		X1	Y1	Z1	X2	Y2	Z2	X3	Y3	Z3	X4	Y4	Z4	X5	Y5	Z5	X6	Y6	Z6	X7	Y7	Z7	X8	Y8	Z8	X9	Y9	Z9	X10	Y10	Z10	X11	Y11	Z11	X12	Y12	Z12	X13	Y13	Z13	X14	Y14	Z14	X15	Y15	Z15	X16	Y16	Z16	X17	Y17	Z17	X18	Y18	Z18	X19	Y19	Z19	X20	Y20	Z20	X21	Y21	Z21	X22	Y22	Z22	X23	Y23	Z23	X24	Y24	Z24	X25	Y25	Z25	X26	Y26	Z26	X27	Y27	Z27	X28	Y28	Z28	X29	Y29	Z29	X30	Y30	Z30	X31	Y31	Z31	X32	Y32	Z32	X33	Y33	Z33	X34	Y34	Z34	X35	Y35	Z35	X36	Y36	Z36	X37	Y37	Z37	X38	Y38	Z38	X39	Y39	Z39	X40	Y40	Z40	X41	Y41	Z41	X42	Y42	Z42	X43	Y43	Z43	X44	Y44	Z44	X45	Y45	Z45	X46	Y46	Z46	X47	Y47	Z47	X48	Y48	Z48	X49	Y49	Z49	X50	Y50	Z50	X51	Y51	Z51	X52	Y52	Z52	X53	Y53	Z53	

643	6.42	-249.8841705322266	985.23486328125	1141.247192382812	-265.0518798828125	984.727294921875	1012.657775878906	-257.5850524902344	1042.092407226562	1076.73828125	-34.16067886352539	1232.059692382812	1034.227294921875	-271.8665161132812	1160.041015625	1058.133178710938	-236.8169403076172	1407.81201171875	1024.072875976562	-80.19100952148438	1356.587768554688	1024.234375	-276.461669921875	1272.430786132812	1103.760986328125	-252.6339721679688	1364.895751953125	926.8274536132812	-171.8971557617188	1379.989868164062	864.2683715820312	-194.1143951416016	1258.743774414062	803.5076293945312	-181.0098724365234	1056.037353515625	787.7342529296875	-232.0044708251953	1041.946655273438	853.7153930664062	-81.41918182373047	811.4609375	808.7042846679688	-129.7589874267578	803.8015747070312	759.4739990234375	-168.2893829345703	952.0774536132812	774.7626953125	-80.29319000244141	653.2105712890625	813.172607421875	-134.2258148193359	733.7006225585938	762.5926513671875	-74.3394775390625	733.4205322265625	787.4053344726562	-172.9747161865234	1408.000244140625	1182.361572265625	-179.5765838623047	1350.984130859375	1251.981323242188	-144.7479553222656	1099.877319335938	1340.029541015625	-180.9136047363281	1069.797973632812	1257.80029296875	4.554264068603516	895.4746704101562	1338.23388671875	-27.05729675292969	882.1566772460938	1406.49853515625	-110.2900543212891	1039.6767578125	1363.428466796875	60.00690841674805	735.3060913085938	1355.405883789062	56.86395263671875	807.9517822265625	1362.849975585938	8.636930465698242	801.5782470703125	1412.259155273438	-174.2730255126953	1624.184448242188	1089.139892578125	-3.857293605804443	1613.174926757812	969.8973388671875	-12.76189422607422	1620.3798828125	1070.331787109375	-188.9910125732422	1611.388793945312	946.041748046875	-187.9896697998047	930.7617797851562	899.5838012695312	-158.3098754882812	930.9147338867188	1240.106811523438	-58.93941497802734	962.1162109375	1187.541625976562	-62.85627746582031	958.6142578125	947.4786376953125	-74.62942504882812	482.0378723144531	876.8931274414062	-95.17918395996094	616.8526000976562	878.3671264648438	-305.9138793945312	114.4426422119141	834.7075805664062	-189.1910247802734	289.2866821289062	843.5776977539062	-117.6467361450195	52.56291198730469	906.98583984375	-191.0315399169922	52.92338180541992	940.8838500976562	-187.56298828125	75.41175842285156	829.4732666015625	-345.0279846191406	117.3218536376953	899.1246337890625	-93.51411437988281	469.0958557128906	1228.98095703125	-72.48263549804688	729.4478149414062	1241.453247070312	-143.7588348388672	47.40779495239258	1212.046142578125	-80.17505645751953	350.1246032714844	1220.795166015625	52.47714233398438	44.18131256103516	1171.92041015625	2.136279821395874	44.63084030151367	1126.18359375	-46.01878356933594	33.86797714233398	1235.579711914062	-189.0415344238281	53.82551956176758	1158.71337890625	
644	6.43	-247.7079162597656	985.4131469726562	1144.071899414062	-263.5703735351562	985.4017944335938	1015.617797851562	-255.5610504150391	1042.526977539062	1079.69189453125	-32.46601104736328	1232.5087890625	1036.087524414062	-270.1980895996094	1160.48681640625	1061.255004882812	-235.1843719482422	1408.22021484375	1027.245971679688	-78.56019592285156	1357.032348632812	1026.419311523438	-274.3854370117188	1272.7919921875	1107.122314453125	-251.5746459960938	1365.444091796875	930.0299072265625	-171.1760101318359	1380.501342773438	867.0226440429688	-193.7584686279297	1259.27197265625	806.4478759765625	-180.8438720703125	1056.452270507812	791.2022705078125	-231.4945373535156	1042.55224609375	857.5318603515625	-80.95360565185547	811.91845703125	812.8796997070312	-129.3997650146484	803.9179077148438	763.81982421875	-168.1094055175781	952.4098510742188	778.6267700195312	-79.57874298095703	653.6666259765625	818.7779541015625	-133.8663024902344	733.759521484375	767.5558471679688	-73.87310791015625	733.7314453125	792.1880493164062	-170.4376525878906	1408.385009765625	1185.0654296875	-176.4425354003906	1351.351440429688	1254.738647460938	-139.5506896972656	1100.674682617188	1343.001098632812	-176.3464813232422	1070.236938476562	1261.110717773438	10.11312961578369	896.4677124023438	1340.6513671875	-20.89468193054199	883.4696655273438	1409.314575195312	-104.6684265136719	1040.707397460938	1366.275634765625	65.64635467529297	736.347412109375	1358.14697265625	62.61354446411133	809.047607421875	1365.256103515625	14.8934211730957	802.934326171875	1415.187866210938	-172.1311798095703	1624.592895507812	1092.155883789062	-2.429489374160767	1613.508056640625	971.8514404296875	-10.67286491394043	1620.611938476562	1072.352783203125	-187.6672058105469	1611.983520507812	949.1109008789062	-187.1136016845703	931.738525390625	902.0467529296875	-155.6856231689453	930.7609252929688	1242.292358398438	-56.57843780517578	961.9552612304688	1189.35888671875	-61.73676681518555	959.2706298828125	949.2018432617188	-74.02436065673828	482.4794616699219	878.5667114257812	-94.94710540771484	617.8028564453125	879.7951049804688	-297.0560913085938	109.154655456543	841.6414184570312	-185.1213989257812	287.3736877441406	847.7540283203125	-104.8128433227539	54.87003707885742	909.6044921875	-177.41845703125	52.31032562255859	945.166748046875	-177.3995361328125	74.85434722900391	833.8287353515625	-334.8032531738281	110.7000579833984	906.897705078125	-92.25053405761719	468.9031982421875	1229.67626953125	-70.45133972167969	729.1277465820312	1242.6806640625	-143.760498046875	47.50590133666992	1212.056030273438	-79.22333526611328	349.8093872070312	1221.208251953125	52.48032379150391	44.16812896728516	1171.89501953125	2.142790079116821	44.61687088012695	1126.123901367188	-46.02405166625977	33.90370559692383	1235.537109375	-189.0013885498047	53.87967300415039	1158.675903320312	
645	6.44	-245.6017456054688	985.4880981445312	1146.806396484375	-262.16259765625	985.950927734375	1018.488525390625	-253.6772003173828	1042.932006835938	1082.5458984375	-30.77215385437012	1232.887329101562	1037.903930664062	-268.4099426269531	1160.906616210938	1064.296875	-233.5422821044922	1408.592407226562	1030.271118164062	-76.89867401123047	1357.417358398438	1028.51025390625	-272.3036193847656	1273.112060546875	1110.3330078125	-250.4715270996094	1365.936279296875	933.078857421875	-170.3931121826172	1380.933837890625	869.6653442382812	-193.3061065673828	1259.689208984375	809.283935546875	-180.5184173583984	1056.764038085938	794.5174560546875	-230.9570007324219	1043.065551757812	861.0902099609375	-80.32258605957031	812.333984375	817.0571899414062	-128.7789001464844	803.9365844726562	768.110595703125	-167.7468414306641	952.6373291015625	782.3558349609375	-78.65615081787109	653.9572143554688	824.419921875	-133.2198028564453	733.7106323242188	772.503662109375	-73.15840911865234	733.9905395507812	797.0564575195312	-167.9273376464844	1408.735595703125	1187.67529296875	-173.3637542724609	1351.66845703125	1257.388061523438	-134.5735015869141	1101.370727539062	1345.753784179688	-171.9304504394531	1070.6142578125	1264.168823242188	15.4382905960083	897.3593139648438	1342.887329101562	-15.04932594299316	884.6361083984375	1411.899169921875	-99.28335571289062	1041.619873046875	1368.8779296875	71.07978820800781	737.2949829101562	1360.693481445312	68.12384796142578	810.04443359375	1367.515869140625	20.84782791137695	804.1683349609375	1417.900634765625	-170.0558319091797	1624.947998046875	1095.036376953125	-1.046345114707947	1613.836547851562	973.7122192382812	-8.661304473876953	1620.86181640625	1074.289184570312	-186.3764343261719	1612.50244140625	952.0447387695312	-186.3032379150391	932.5945434570312	904.4007568359375	-153.0854187011719	930.5498657226562	1244.344360351562	-54.26407241821289	961.75146484375	1191.044921875	-60.6713981628418	959.8428955078125	950.806640625	-73.59473419189453	482.7431640625	880.2742919921875	-94.90792846679688	618.700927734375	881.159912109375	-287.6917114257812	103.7302780151367	848.3894653320312	-180.881103515625	285.2816772460938	851.9005737304688	-91.91616058349609	57.21248245239258	912.1262817382812	-163.6096038818359	51.76047897338867	949.2228393554688	-166.9427795410156	74.23323822021484	838.0675659179688	-324.0483703613281	103.9664993286133	914.47509765625	-91.03349304199219	468.7025146484375	1230.331176757812	-68.46711730957031	728.7909545898438	1243.832397460938	-143.7687072753906	47.61588287353516	1212.056640625	-78.307373046875	349.5195007324219	1221.573608398438	52.48067092895508	44.15656661987305	1171.869018554688	2.146862030029297	44.59550857543945	1126.061767578125	-46.02873992919922	33.94049453735352	1235.49169921875	-188.9724273681641	53.92137908935547	1158.6318359375	
646	6.45	-243.5591278076172	985.4892578125	1149.43017578125	-260.8118896484375	986.3921508789062	1021.247436523438	-251.9153900146484	1043.290893554688	1085.285034179688	-29.08107948303223	1233.1904296875	1039.669555664062	-266.5124816894531	1161.291870117188	1067.2568359375	-231.8905639648438	1408.923217773438	1033.151245117188	-75.21114349365234	1357.737548828125	1030.50732421875	-270.2074279785156	1273.3896484375	1113.396118164062	-249.3321685791016	1366.364501953125	935.9810791015625	-169.5644836425781	1381.286987304688	872.1924438476562	-192.7635650634766	1259.984619140625	812.0172729492188	-180.0272216796875	1056.967407226562	797.6903076171875	-230.3864288330078	1043.480834960938	864.3995361328125	-79.52846527099609	812.7042846679688	821.2323608398438	-127.8926391601562	803.8671875	772.3314208984375	-167.1880645751953	952.7614135742188	785.9508666992188	-77.57855224609375	654.0364990234375	829.9703979492188	-132.2758178710938	733.5673217773438	777.3956298828125	-72.19863891601562	734.1972045898438	801.9877319335938	-165.4362945556641	1409.043823242188	1190.188598632812	-170.3307037353516	1351.929931640625	1259.93017578125	-129.8244781494141	1101.955444335938	1348.296508789062	-167.6778411865234	1070.908447265625	1266.994140625	20.5240478515625	898.1422119140625	1344.946899414062	-9.52208137512207	885.6423950195312	1414.252197265625	-94.15348052978516	1042.40087890625	1371.2529296875	76.305419921875	738.1516723632812	1363.031494140625	73.41033935546875	810.9413452148438	1369.614868164062	26.49385452270508	805.2665405273438	1420.377563476562	-168.0431365966797	1625.239013671875	1097.7802734375	0.2980906665325165	1614.151733398438	975.4817504882812	-6.725988864898682	1621.123657226562	1076.140502929688	-185.1188812255859	1612.938598632812	954.8428344726562	-185.5670776367188	933.3243408203125	906.6337890625	-150.5398559570312	930.3135375976562	1246.275512695312	-51.9985237121582	961.513427734375	1192.593383789062	-59.64487075805664	960.3338623046875	952.2957153320312	-73.33627319335938	482.8203430175781	882.02685546875	-95.01905822753906	619.5311889648438	882.4852294921875	-277.8795776367188	98.27444458007812	854.89208984375	-176.4802551269531	283.0658874511719	855.9791259765625	-79.03171539306641	59.58993911743164	914.5626220703125	-149.7062835693359	51.3156623840332	953.0382690429688	-156.2621459960938	73.59056091308594	842.1551513671875	-312.8334045410156	97.24111938476562	921.77197265625	-89.86469268798828	468.4959716796875	1230.943725585938	-66.51664733886719	728.4398193359375	1244.898803710938	-143.7874755859375	47.72123718261719	1212.031005859375	-77.43557739257812	349.2640380859375	1221.90185546875	52.47831726074219	44.14685440063477	1171.841796875	2.148583889007568	44.56538009643555	1125.9970703125	-46.03269195556641	33.97782897949219	1235.443115234375	-188.9547576904297	53.95378494262695	1158.585327148438	
